# xmcd CD database file
#
# Track frame offsets:
#	150
#	17100
#	34650
#	56775
#	76875
#	99975
#	125100
#	147300
#	169050
#	185550
#
# Disc length: 2921 seconds
#
# Revision: 1
# Processed by: cddbd v1.5.1PL0 Copyright (c) Steve Scherf et al.
# Submitted via: freeDBTagger 0.5
#
DISCID=860b670a
DTITLE=辛島美登里 - NIGHT and DAY
DYEAR=1994
DGENRE=misc
TTITLE0=5:00p.m.
TTITLE1=くちづけの予感
TTITLE2=遠い夏の日
TTITLE3=年下の彼
TTITLE4=私は泣かない
TTITLE5=Jealousy
TTITLE6=Half and Half  -私自身-
TTITLE7=1.2.3! one-two-three
TTITLE8=夜の囁き
TTITLE9=永遠の楽園
EXTD=YEAR: 1994
EXTT0=
EXTT1=
EXTT2=
EXTT3=
EXTT4=
EXTT5=
EXTT6=
EXTT7=
EXTT8=
EXTT9=
PLAYORDER=
